# xmcd CD database file
#
# Track frame offsets:
#	150
#	13473
#	28071
#	44019
#	59067
#	73665
#	91038
#	105111
#	117009
#	134082
#
# Disc length: 1978 seconds
#
# Revision: 0
# Processed by: cddbd v1.5.2PL0 Copyright (c) Steve Scherf et al.
# Submitted via: CDex 1.70beta2
#
DISCID=8d07b80a
DTITLE=Conlee, John - USA - Greatest Hits - V2
DYEAR=1900
DGENRE=Country
TTITLE0=Lifetime Guarantee
TTITLE1=Years After You
TTITLE2=In My Eves
TTITLE3=As Long As I'm Rocking With You
TTITLE4=I'm Only In It For the Love
TTITLE5=Teh Old School
TTITLE6=Way Back
TTITLE7=Before My Time
TTITLE8=Working Man
TTITLE9=Blue Highway
EXTD=
EXTT0=
EXTT1=
EXTT2=
EXTT3=
EXTT4=
EXTT5=
EXTT6=
EXTT7=
EXTT8=
EXTT9=
PLAYORDER=
